<svg xmlns="http://www.w3.org/2000/svg" viewBox="0 0 1200 900" width="1200" height="900" preserveAspectRatio="xMidYMid slice">
  <defs>
    <radialGradient id="bg2" cx="50%" cy="40%" r="80%">
      <stop offset="0%" stop-color="#2a4ab8"/>
      <stop offset="100%" stop-color="#070d24"/>
    </radialGradient>
    <radialGradient id="tray2" cx="50%" cy="50%" r="50%">
      <stop offset="0%" stop-color="#7a4a20"/>
      <stop offset="100%" stop-color="#3a1f0c"/>
    </radialGradient>
    <linearGradient id="bread2" x1="0" y1="0" x2="0" y2="1">
      <stop offset="0%" stop-color="#f5d488"/>
      <stop offset="100%" stop-color="#9b6a26"/>
    </linearGradient>
    <radialGradient id="tuna" cx="50%" cy="50%" r="50%">
      <stop offset="0%" stop-color="#d39a82"/>
      <stop offset="100%" stop-color="#7a4530"/>
    </radialGradient>
  </defs>
  <rect width="1200" height="900" fill="url(#bg2)"/>
  <g transform="translate(600,470) rotate(-10)">
    <rect x="-360" y="-260" width="720" height="520" rx="20" fill="url(#tray2)" opacity="0.85"/>
  </g>
  <g transform="translate(600,470) rotate(6)">
    <rect x="-340" y="-240" width="680" height="480" rx="16" fill="url(#tray2)"/>
    <rect x="-300" y="-200" width="600" height="400" rx="8" fill="url(#bread2)"/>
    <line x1="-300" y1="-66" x2="300" y2="-66" stroke="#7a3520" stroke-width="3"/>
    <line x1="-300" y1="66"  x2="300" y2="66"  stroke="#7a3520" stroke-width="3"/>
    <line x1="-100" y1="-200" x2="-100" y2="200" stroke="#7a3520" stroke-width="3"/>
    <line x1="100"  y1="-200" x2="100"  y2="200" stroke="#7a3520" stroke-width="3"/>
    <ellipse cx="-30" cy="-20" rx="60" ry="40" fill="url(#tuna)"/>
    <ellipse cx="50"  cy="20"  rx="55" ry="38" fill="url(#tuna)"/>
    <ellipse cx="-10" cy="60"  rx="50" ry="35" fill="url(#tuna)"/>
    <ellipse cx="40"  cy="-50" rx="40" ry="28" fill="url(#tuna)"/>
  </g>
  <text x="600" y="830" text-anchor="middle" font-family="El Messiri, serif" font-size="26" letter-spacing="6" fill="#f5c233" opacity="0.6">مطبّق تونة · PLACEHOLDER</text>
</svg>
